<?xml version="1.0" encoding="utf-8"?>
<!-- Generator: Adobe Illustrator 21.0.0, SVG Export Plug-In . SVG Version: 6.00 Build 0)  -->
<svg version="1.1" id="Layer_1" xmlns="http://www.w3.org/2000/svg" xmlns:xlink="http://www.w3.org/1999/xlink" x="0px" y="0px"
	 viewBox="0 0 123 126" style="enable-background:new 0 0 123 126;" xml:space="preserve">
<style type="text/css">
	.st0{fill:#79BD43;}
	.st1{fill:#576FB5;}
	.st2{fill:#353635;}
	.st3{fill:#69A543;}
</style>
<g>
	<path class="st0" d="M63.4,112.2H64c6.3,0,11.4-5.1,11.4-11.4V88.9H64.6c-17.6,0-29.4-10.5-29.4-28.4S47,32.1,64.6,32.1H89
		c12.9,0,23.4-10.5,23.4-23.4l0,0h-49c-34.3,0-57.8,20-57.8,51.7S29.1,112.2,63.4,112.2z"/>
	<path class="st1" d="M64.6,88.9h10.8v11.9c0,6.3-5.1,11.4-11.4,11.4h-0.6c-5.2,0-10.2-0.5-14.9-1.4V85.1
		C53,87.6,58.4,88.9,64.6,88.9z"/>
	<path class="st2" d="M83.1,112.2h15.4c7.7,0,13.9-6.2,13.9-13.9V49.7l0,0c-16.2,0-29.3,13.1-29.3,29.3
		C83.1,79,83.1,112.2,83.1,112.2z"/>
	<g>
		<g>
			<path class="st0" d="M48.5,110.4V10.1c4.7-0.9,9.7-1.4,14.9-1.4h12v92.1c0,6.3-5.1,11.4-11.4,11.4h-1.4c-0.6,0-1.2,0-1.9,0
				s-1.4-0.1-2.1-0.1C55.1,111.8,51.7,111.2,48.5,110.4z"/>
		</g>
	</g>
	<path class="st3" d="M37,107.5V71.8c2.2,5.9,6.1,10.5,11.5,13.4v25.7C44.4,110.1,40.6,109,37,107.5z"/>
	<rect x="75.4" y="8.7" class="st3" width="11.7" height="23.4"/>
	<path class="st3" d="M36.9,49.5v-36c3.6-1.5,7.5-2.6,11.7-3.4v25.7C43.1,38.7,39.1,43.3,36.9,49.5z"/>
</g>
</svg>
