<?xml version="1.0" encoding="utf-8"?>
<!-- Generator: Adobe Illustrator 21.0.0, SVG Export Plug-In . SVG Version: 6.00 Build 0)  -->
<svg version="1.1" id="Layer_1" xmlns="http://www.w3.org/2000/svg" xmlns:xlink="http://www.w3.org/1999/xlink" x="0px" y="0px"
	 viewBox="0 0 384 126" enable-background="new 0 0 384 126" xml:space="preserve">
<g>
	<path fill="#79BD43" d="M63.4,112.2H64c6.3,0,11.4-5.1,11.4-11.4V88.9H64.6c-17.6,0-29.4-10.5-29.4-28.4
		c0-17.9,11.8-28.4,29.4-28.4H89c12.9,0,23.4-10.5,23.4-23.4l0,0H63.4c-34.3,0-57.8,20-57.8,51.7S29.1,112.2,63.4,112.2z"/>
	<path fill="#576FB5" d="M64.6,88.9h10.8v11.9c0,6.3-5.1,11.4-11.4,11.4h-0.6c-5.2,0-10.2-0.5-14.9-1.4V85.1
		C53,87.6,58.4,88.9,64.6,88.9z"/>
	<path fill="#353635" d="M83.1,112.2h15.4c7.7,0,13.9-6.2,13.9-13.9V49.7l0,0c-16.2,0-29.3,13.1-29.3,29.3V112.2z"/>
	<g>
		<g>
			<path fill="#79BD43" d="M48.5,110.4V10.1c4.7-0.9,9.7-1.4,14.9-1.4h12v92.1c0,6.3-5.1,11.4-11.4,11.4h-1.4c-0.6,0-1.2,0-1.9,0
				c-0.7,0-1.4-0.1-2.1-0.1C55.1,111.8,51.7,111.2,48.5,110.4z"/>
		</g>
	</g>
	<path fill="#69A543" d="M37,107.5V71.8c2.2,5.9,6.1,10.5,11.5,13.4v25.7C44.4,110.1,40.6,109,37,107.5z"/>
	
		<rect x="75.4" y="8.7" transform="matrix(-1 -1.224647e-16 1.224647e-16 -1 162.4991 40.8362)" fill="#69A543" width="11.7" height="23.4"/>
	<path fill="#69A543" d="M36.9,49.5v-36c3.6-1.5,7.5-2.6,11.7-3.4v25.7C43.1,38.7,39.1,43.3,36.9,49.5z"/>
</g>
<g>
	<path fill="#010101" d="M118,83.7c0-5.8,1.9-10.6,5.6-14.4c3.7-3.7,8.5-5.6,14.4-5.6c5.8,0,10.5,1.9,14,5.6s5.2,8.5,5.2,14.4v4
		h-27.5c0.3,2.1,1.2,3.8,2.8,5s3.5,1.8,5.6,1.8c3.7,0,7-1.1,10-3.2l6.4,6.4c-2.9,4-8.4,6-16.3,6c-5.8,0-10.6-1.9-14.4-5.6
		C119.9,94.4,118,89.6,118,83.7z M143.5,74.8c-1.6-1.2-3.5-1.8-5.6-1.8c-2.1,0-4,0.6-5.6,1.8s-2.4,2.9-2.4,5h16
		C145.9,77.6,145.1,76,143.5,74.8z"/>
	<path fill="#010101" d="M177,78.3v25.4h-11.2V64.9l11.2-1.2v3.6c2.7-2.4,5.9-3.6,9.6-3.6c5.1,0,8.9,1.5,11.6,4.6
		c2.7,3.1,4,6.6,4,10.6v24.7H191V81.7c0-2.7-0.7-4.7-2-6.2s-3.3-2.2-6-2.3C180.6,73.4,178.7,75.1,177,78.3z"/>
	<path fill="#010101" d="M222.7,78.3v25.4h-11.2V64.9l11.2-1.2v3.6c2.7-2.4,5.9-3.6,9.6-3.6c5.1,0,8.9,1.5,11.6,4.6
		c2.7,3.1,4,6.6,4,10.6v24.7h-11.2V81.7c0-2.7-0.7-4.7-2-6.2s-3.3-2.2-6-2.3C226.3,73.4,224.3,75.1,222.7,78.3z"/>
	<path fill="#010101" d="M258.4,50.2c1.1-1.1,2.5-1.6,4.3-1.6c1.9,0,3.4,0.5,4.5,1.6c1.1,1.1,1.6,2.4,1.6,4c0,1.6-0.5,2.9-1.6,4
		c-1.1,1.1-2.5,1.6-4.4,1.6c-1.9,0-3.3-0.5-4.4-1.6c-1.1-1.1-1.6-2.4-1.6-4C256.8,52.6,257.3,51.3,258.4,50.2z M268.3,103.7V63.8
		h-11.2v39.9H268.3z"/>
	<path fill="#010101" d="M302.8,89.9V63.8h11.2v36.7c0,5.6-1.7,10.2-5.2,14c-3.5,3.7-7.6,5.7-12.4,5.9l-2.4,0.2
		c-5.6-0.2-10.6-2.4-15.2-6.6l5.2-6c3.2,2.4,6.2,3.7,9.1,4c3.5,0,5.9-0.9,7.4-2.6c1.5-1.7,2.3-4.2,2.3-7.4v-2
		c-2.8,2.4-6.1,3.6-9.8,3.6c-5.1,0-8.9-1.5-11.6-4.6c-2.7-3.1-4-6.6-4-10.6V63.8h11.2v21.9c0,2.7,0.7,4.7,2,6.2
		c1.3,1.5,3.3,2.2,6,2.3C299,94.1,301,92.6,302.8,89.9z"/>
	<path fill="#010101" d="M323.8,68.6c5.1-3.2,10.9-4.8,17.5-4.8c4.8,0,8.6,1.3,11.4,4c2.8,2.7,4.2,6.6,4.2,12v23.9h-11.2v-3.2
		c-3.2,2.1-6.2,3.2-8.8,3.2c-5.3,0-9.3-1.1-12-3.4c-2.7-2.3-4-5.4-4-9.4c0-3.7,1.3-7,3.8-10c2.5-2.9,6.6-4.4,12.2-4.4
		c2.6,0,5.5,0.8,8.8,2.4v-1.2c-0.1-2.9-2.2-4.5-6.4-4.8c-4.8,0-8.5,0.8-11.2,2.4L323.8,68.6z M345.7,91.7v-4.5
		c-1.1-2-3.6-3.1-7.6-3.1c-4.8,0.5-7.3,2.4-7.6,5.6c0.3,3.2,2.8,4.9,7.6,5.1C342.1,94.9,344.7,93.8,345.7,91.7z"/>
	<path fill="#010101" d="M366.9,103.7V43.9H378v59.8H366.9z"/>
</g>
</svg>
